<?xml version="1.0" encoding="UTF-8" standalone="no"?>
<!-- Created with Inkscape (http://www.inkscape.org/) -->

<svg
   version="1.1"
   id="svg2"
   xml:space="preserve"
   width="491.22858"
   height="648.59167"
   viewBox="0 0 491.22857 648.59167"
   sodipodi:docname="820bd9a19b41732d64b76a265a0280b6.ai"
   xmlns:inkscape="http://www.inkscape.org/namespaces/inkscape"
   xmlns:sodipodi="http://sodipodi.sourceforge.net/DTD/sodipodi-0.dtd"
   xmlns="http://www.w3.org/2000/svg"
   xmlns:svg="http://www.w3.org/2000/svg"><defs
     id="defs6"><clipPath
       clipPathUnits="userSpaceOnUse"
       id="clipPath16"><path
         d="M 0,640 H 640 V 0 H 0 Z"
         id="path14" /></clipPath></defs><sodipodi:namedview
     id="namedview4"
     pagecolor="#ffffff"
     bordercolor="#666666"
     borderopacity="1.0"
     inkscape:pageshadow="2"
     inkscape:pageopacity="0.0"
     inkscape:pagecheckerboard="0" /><g
     id="g8"
     inkscape:groupmode="layer"
     inkscape:label="820bd9a19b41732d64b76a265a0280b6"
     transform="matrix(1.3333333,0,0,-1.3333333,-182.96163,756.77542)"><g
       id="g10"><g
         id="g12"
         clip-path="url(#clipPath16)"><g
           id="g18"
           transform="translate(444.1385,354.9048)"><path
             d="m 0,0 c 3.541,-3.528 6.605,-6.648 9.778,-9.654 0.388,-0.367 1.522,-0.406 2.032,-0.113 4.964,2.853 7.801,7.417 10.377,12.383 C 14.798,1.745 7.921,0.934 0,0 m 15.315,75.944 c 0.207,1.42 0.46,2.129 0.385,2.8 -1.121,9.949 -3.244,19.629 -8.284,28.421 -4.005,6.987 -15.722,12.887 -22.692,11.515 0.079,-0.342 0.06,-0.757 0.253,-1.007 0.684,-0.885 1.538,-1.649 2.154,-2.575 C -8.205,108.089 -2.681,101.467 0.793,93.905 4.115,86.676 9.34,81.663 15.315,75.944 m 4.877,-25.212 c 0.627,0.662 1.141,1 1.366,1.475 5.266,11.099 8.888,22.681 9.626,34.998 0.22,3.674 -0.9,7.15 -3.995,9.653 -3.867,3.127 -7.675,6.328 -11.568,9.421 -0.653,0.52 -1.609,0.659 -2.425,0.973 -0.321,-0.179 -0.642,-0.358 -0.963,-0.538 10.335,-17.512 6.685,-36.828 7.959,-55.982 m -63.725,70.087 c -0.144,-0.406 -0.288,-0.812 -0.432,-1.218 1.163,-1.025 2.359,-2.016 3.484,-3.082 4.495,-4.256 9.643,-8.032 13.294,-12.923 5.745,-7.697 14.622,-8.235 22.345,-11.468 0.246,-0.103 0.674,0.23 1.148,0.41 -0.068,0.481 -0.027,0.997 -0.216,1.408 -4.36,9.498 -9.976,18.103 -18.609,24.257 -6.509,4.639 -13.829,3.503 -21.014,2.616 M 42.241,47.886 C 41.878,47.273 41.469,46.683 41.158,46.045 35.616,34.698 27.127,26.194 16.059,20.257 11.027,17.558 5.781,15.252 0.807,12.456 -0.59,11.671 -2.503,8.888 -2.236,8.549 -0.913,6.865 0.953,4.705 2.823,4.5 c 10.828,-1.185 20.391,2.34 27.33,10.593 7.796,9.273 10.507,20.92 12.088,32.793 m -6.23,36.5 C 35.413,81.979 35.035,80.632 34.746,79.265 32.041,66.44 28.82,53.907 20.849,42.993 16.63,37.217 13.493,30.648 9.929,24.402 c -0.216,-0.379 0.102,-1.062 0.262,-2.305 3.484,2.059 6.722,3.638 9.592,5.724 13.374,9.722 21.834,22.394 22.155,39.379 0.111,5.842 -2.054,11.287 -5.927,17.186 M -50.19,97.561 c 2.091,0.156 4.94,0.421 7.795,0.568 2.859,0.148 5.732,0.081 8.582,0.312 1.017,0.082 2.662,0.59 2.818,1.207 0.24,0.949 -0.238,2.488 -0.971,3.205 -3.725,3.647 -7.616,7.125 -11.481,10.627 -1.09,0.987 -2.849,1.621 -3.347,2.815 -3.126,7.487 -13.829,7.356 -19.269,4.1 -6.534,-3.91 -7.552,-10.251 -2.393,-15.919 4.69,-5.153 10.749,-6.902 18.266,-6.915 M 10.238,39.127 c -4.633,3 -8.653,5.929 -12.973,8.317 -5.48,3.031 -11.302,5.08 -17.785,4.762 -8.409,-0.414 -15.212,-6.324 -15.697,-14.655 -0.256,-4.397 0.195,-8.953 1.092,-13.278 2.91,-14.026 9.625,-26.326 18.276,-37.574 10.128,-13.17 22.058,-24.233 37.232,-31.563 6.631,-3.204 12.12,-4.409 18.228,1.765 4.232,4.277 8.595,7.999 9.203,14.243 1.405,14.428 -5.094,26.339 -12.282,38.579 -2.428,-3.484 -4.218,-6.654 -6.595,-9.297 -2.483,-2.76 -2.081,-4.92 -0.731,-8.17 2.258,-5.439 3.963,-11.228 4.96,-17.031 0.785,-4.573 -0.902,-5.633 -5.451,-4.186 -3.051,0.971 -6.109,2.257 -8.796,3.975 -15.363,9.828 -26.697,23.341 -35.035,39.412 -3.091,5.957 -5.758,12.158 -5.615,19.112 0.075,3.688 1.396,4.822 4.925,3.757 2.715,-0.82 5.414,-1.939 7.851,-3.379 4.028,-2.379 7.839,-5.125 12.089,-7.947 2.286,4.233 4.517,8.366 7.104,13.158 M 29.549,-50.128 C 8.59,-45.047 -7.056,-32.97 -20.625,-17.804 -34.2,-2.63 -44.037,14.44 -46.482,35.653 -52.465,30.827 -58.123,26.567 -63.37,21.851 c -1.616,-1.453 -3.239,-4.343 -2.916,-6.246 1.112,-6.554 2.312,-13.287 4.869,-19.367 7.945,-18.889 20.57,-34.573 35.423,-48.48 6.83,-6.394 14.264,-12.077 23.099,-15.538 3.259,-1.277 6.87,-2.435 9.982,-0.082 7.42,5.609 14.62,11.511 22.462,17.734 M -73.05,28.405 c -46.759,25.304 -122.424,25.638 -176.784,-29.129 -51.869,-52.258 -58.715,-137.356 -13.603,-198.013 44.603,-59.971 127.746,-80.052 195.786,-42.693 65.408,35.915 87.675,107.727 76.204,160.939 -12.014,-1.895 -21.647,3.693 -30.943,10.23 -9.838,6.919 -18.381,15.233 -26.056,24.457 -11.535,13.86 -21.625,28.615 -27.128,45.997 -3.057,9.659 -5.002,19.418 2.524,28.212 m 13.412,136.385 -0.001,0.002 c 1.746,12.393 -5.248,22.371 -8.858,33.045 -2.09,-3.477 -3.839,-7.167 -6.286,-10.314 -6.641,-8.534 -15.447,-15.485 -18.526,-26.586 l -0.947,0.054 c -2.108,4.883 -4.216,9.766 -6.317,14.633 -0.113,-0.104 -0.63,-0.463 -1,-0.937 -0.996,-1.275 -2.021,-2.541 -2.873,-3.911 -5.961,-9.593 -8.394,-20.333 -10.662,-31.246 -3.229,-15.534 6.708,-35.629 22.175,-43.231 7.127,-3.503 14.679,-4.815 23.229,-2.274 -1.042,0.679 -1.488,1.036 -1.988,1.286 -6.975,3.476 -12.783,8.129 -15.677,15.667 -1.631,4.247 -3.194,8.521 -4.706,12.811 -0.266,0.752 -0.132,1.645 -0.183,2.473 0.926,0.051 1.966,0.4 2.757,0.098 2.458,-0.939 4.822,-2.125 6.378,-2.832 -1.047,6.996 -2.847,14.271 -3.034,21.586 -0.196,7.661 2.904,14.563 9.207,20.892 -0.507,-6.525 3.154,-9.689 6.872,-12.651 4.054,-3.231 7.342,-6.819 7.652,-12.308 1.71,1.328 3.178,2.468 4.568,3.548 1.306,-3.104 2.441,-5.697 3.484,-8.326 0.592,-1.493 1.264,-3.014 1.488,-4.581 0.315,-2.204 -0.13,-4.872 2.989,-5.157 3.164,-0.29 6.199,-0.614 8.273,3.21 9.894,18.239 5.487,41.926 -10.521,54.917 -0.094,0.077 -0.399,-0.107 -0.608,-0.17 0.545,-7.567 -0.373,-14.611 -6.885,-19.698 M -64.609,39.42 c 5.412,3.132 10.43,6.005 15.407,8.947 0.727,0.429 1.369,1.106 1.871,1.798 11.251,15.52 27.168,18.656 43.628,12.411 3.232,-1.226 6.367,-2.707 9.762,-4.162 0.866,4.425 -0.018,8.014 -3.328,11.065 -2.917,2.688 -5.564,5.666 -8.389,8.457 -0.487,0.482 -1.241,0.745 -1.917,0.977 -6.22,2.144 -12.448,4.266 -18.682,6.37 -0.693,0.235 -1.45,0.493 -2.157,0.443 -6.077,-0.425 -12.142,-1.085 -18.225,-1.333 -3.949,-0.16 -8.033,0.893 -11.851,0.225 -3.701,-0.647 -7.012,-3.393 -10.716,-4.187 -16.434,-3.523 -30.499,1.578 -42.424,12.907 -11.359,10.792 -18.159,24.303 -17.366,39.86 0.898,17.614 5.235,34.702 16.356,49.238 5.353,6.997 12.108,8.629 20.214,5.421 4.718,5.102 9.555,9.814 11.58,16.772 1.472,5.055 7.52,8.407 12.737,8.017 6.153,-0.46 10.592,-3.886 12.152,-9.35 0.442,-1.547 0.948,-3.075 1.48,-4.788 7.005,0.362 11.428,-3.381 15.81,-8.315 10.778,-12.137 16.594,-25.904 15.64,-42.192 -0.273,-4.667 -1.494,-9.279 -2.274,-13.877 3.741,-2.174 7.839,-1.047 11.5,-1.735 7.464,-1.402 14.804,-4.073 21.797,-7.132 3.969,-1.736 7.867,-4.042 11.613,-6.191 9.405,-5.393 18.957,-11.206 23.375,-22.126 0.413,-1.018 0.939,-2.079 1.685,-2.861 C 53.867,84.43 56.093,72.723 55.008,59.95 54.812,57.646 54.698,55.118 55.428,52.996 57.23,47.761 55.748,42.825 54.436,37.978 52.717,31.635 50.44,25.434 48.192,19.248 47.502,17.349 47.316,15.976 48.498,14.113 54.617,4.461 58.923,-5.939 60.82,-17.275 63.49,-33.236 58.375,-45.73 44.951,-55.109 37.412,-60.376 30.53,-66.58 23.273,-72.26 c -1.675,-1.311 -2.06,-2.432 -1.591,-4.651 3.9,-18.446 4.234,-36.979 1.159,-55.615 -3.812,-23.11 -11.147,-44.864 -24.068,-64.551 -23.843,-36.326 -56.492,-60.526 -98.763,-71.244 -46.119,-11.695 -89.45,-4.398 -129.765,20.385 -25.621,15.749 -44.982,37.628 -58.857,64.24 -14.717,28.225 -20.405,58.5 -17.622,90.018 3.94,44.607 22.806,82.147 56.69,111.62 24.267,21.107 52.597,33.692 84.479,38.511 32.627,4.932 63.657,-0.459 93.647,-13.43 2.493,-1.078 4.82,-2.54 6.809,-3.603"
             style="fill:#fbd403;fill-opacity:1;fill-rule:nonzero;stroke:none"
             id="path20" /></g><g
           id="g22"
           transform="translate(355.6918,371.6175)"><path
             d="m 0,0 c -42.454,21.494 -106.544,15.228 -150.333,-29.851 -40.64,-41.838 -44.939,-98.337 -32.632,-129.99 -0.695,49.753 14.753,92.304 52.303,125.04 C -93.011,-1.976 -48.557,7.012 0,0 m 31.259,-133.565 c -0.118,2.312 -0.134,3.812 -0.29,5.297 -0.129,1.234 -0.431,2.449 -0.642,3.675 -3.511,20.397 -14.92,34.254 -34.277,41.641 -1.012,0.386 -2.062,1.804 -2.3,2.912 -2.933,13.66 -10.579,24.011 -22.134,31.531 -17.878,11.635 -41.281,12.4 -59.274,0.557 -16.219,-10.675 -31.961,-22.078 -47.853,-33.245 -7.614,-5.35 -9.272,-15.358 -3.95,-23.054 7.011,-10.137 14.074,-20.239 21.113,-30.358 17.276,-24.836 34.506,-49.706 51.855,-74.492 5.543,-7.921 15.098,-9.528 22.977,-4.07 17.4,12.053 34.748,24.178 52.136,36.247 15.419,10.703 21.36,26.224 22.639,43.359 M 15.397,11.693 C 7.871,2.899 9.815,-6.861 12.873,-16.519 c 5.503,-17.382 15.593,-32.138 27.128,-45.998 7.675,-9.223 16.218,-17.538 26.056,-24.457 9.296,-6.537 18.929,-12.125 30.943,-10.229 11.471,-53.213 -10.797,-125.025 -76.205,-160.939 -68.039,-37.36 -151.183,-17.279 -195.785,42.692 -45.112,60.657 -38.266,145.756 13.603,198.013 54.36,54.768 130.025,54.433 176.784,29.13"
             style="fill:#010100;fill-opacity:1;fill-rule:nonzero;stroke:none"
             id="path24" /></g><g
           id="g26"
           transform="translate(384.5005,519.6947)"><path
             d="m 0,0 c 6.512,5.087 7.43,12.131 6.885,19.698 0.209,0.063 0.514,0.247 0.608,0.17 16.008,-12.991 20.415,-36.678 10.521,-54.917 -2.074,-3.823 -5.109,-3.5 -8.273,-3.21 -3.119,0.285 -2.675,2.953 -2.989,5.157 -0.224,1.567 -0.896,3.088 -1.488,4.581 -1.043,2.63 -2.178,5.222 -3.484,8.327 -1.39,-1.081 -2.858,-2.221 -4.568,-3.549 -0.31,5.489 -3.598,9.078 -7.652,12.308 -3.718,2.962 -7.379,6.126 -6.872,12.651 -6.303,-6.329 -9.403,-13.231 -9.207,-20.892 0.187,-7.315 1.987,-14.59 3.034,-21.586 -1.556,0.707 -3.92,1.893 -6.378,2.832 -0.791,0.302 -1.831,-0.047 -2.757,-0.097 0.05,-0.829 -0.083,-1.722 0.182,-2.474 1.513,-4.29 3.076,-8.564 4.707,-12.81 2.894,-7.539 8.702,-12.192 15.677,-15.668 0.5,-0.25 0.946,-0.607 1.988,-1.286 -8.55,-2.541 -16.102,-1.229 -23.229,2.274 -15.467,7.602 -25.404,27.697 -22.175,43.231 2.268,10.914 4.701,21.653 10.662,31.246 0.851,1.37 1.877,2.636 2.873,3.911 0.37,0.474 0.887,0.833 1,0.937 2.101,-4.867 4.209,-9.75 6.317,-14.633 l 0.947,-0.054 c 3.079,11.101 11.885,18.052 18.525,26.586 2.448,3.147 4.197,6.837 6.287,10.314 C -5.249,22.373 1.745,12.395 -0.001,0.002 -0.164,-0.052 -0.327,-0.106 -0.49,-0.159 -0.446,-0.265 -0.402,-0.37 -0.358,-0.475 -0.238,-0.317 -0.119,-0.158 0,0"
             style="fill:#030300;fill-opacity:1;fill-rule:nonzero;stroke:none"
             id="path28" /></g><g
           id="g30"
           transform="translate(473.6874,304.7768)"><path
             d="m 0,0 c -7.842,-6.223 -15.041,-12.125 -22.462,-17.734 -3.112,-2.353 -6.723,-1.195 -9.982,0.082 -8.835,3.461 -16.269,9.144 -23.099,15.538 -14.852,13.907 -27.478,29.591 -35.423,48.48 -2.557,6.08 -3.757,12.813 -4.869,19.367 -0.323,1.903 1.3,4.793 2.916,6.246 5.247,4.716 10.905,8.976 16.888,13.802 2.445,-21.213 12.282,-38.283 25.857,-53.457 C -36.605,17.158 -20.959,5.081 0,0"
             style="fill:#020200;fill-opacity:1;fill-rule:nonzero;stroke:none"
             id="path32" /></g><g
           id="g34"
           transform="translate(454.3765,394.0318)"><path
             d="m 0,0 c -2.587,-4.792 -4.818,-8.925 -7.104,-13.158 -4.25,2.822 -8.061,5.568 -12.089,7.947 -2.437,1.44 -5.136,2.559 -7.851,3.379 -3.529,1.065 -4.85,-0.069 -4.925,-3.757 -0.143,-6.954 2.524,-13.155 5.615,-19.112 8.338,-16.071 19.672,-29.584 35.035,-39.412 2.687,-1.719 5.746,-3.004 8.796,-3.975 4.549,-1.447 6.236,-0.387 5.451,4.186 -0.997,5.803 -2.702,11.592 -4.96,17.031 -1.35,3.25 -1.752,5.41 0.731,8.17 2.377,2.643 4.167,5.813 6.595,9.297 7.188,-12.24 13.687,-24.151 12.282,-38.579 -0.608,-6.244 -4.971,-9.966 -9.203,-14.244 -6.108,-6.173 -11.597,-4.968 -18.228,-1.764 -15.174,7.33 -27.104,18.393 -37.232,31.563 -8.651,11.248 -15.366,23.548 -18.276,37.574 -0.897,4.325 -1.348,8.881 -1.092,13.278 0.485,8.331 7.288,14.241 15.697,14.654 6.483,0.319 12.305,-1.73 17.785,-4.761 C -8.653,5.929 -4.633,3 0,0"
             style="fill:#030300;fill-opacity:1;fill-rule:nonzero;stroke:none"
             id="path36" /></g><g
           id="g38"
           transform="translate(393.949,452.4655)"><path
             d="m 0,0 c -7.518,0.013 -13.577,1.762 -18.266,6.915 -5.159,5.669 -4.141,12.009 2.392,15.919 5.44,3.256 16.143,3.388 19.269,-4.1 C 3.894,17.54 5.652,16.906 6.742,15.919 10.608,12.417 14.499,8.939 18.224,5.292 18.957,4.575 19.435,3.036 19.195,2.088 19.039,1.47 17.393,0.962 16.377,0.88 13.526,0.649 10.654,0.716 7.795,0.568 4.94,0.421 2.091,0.156 0,0"
             style="fill:#040300;fill-opacity:1;fill-rule:nonzero;stroke:none"
             id="path40" /></g><g
           id="g42"
           transform="translate(480.1495,439.2912)"><path
             d="m 0,0 c 3.873,-5.899 6.038,-11.345 5.927,-17.186 -0.321,-16.985 -8.781,-29.658 -22.155,-39.38 -2.87,-2.085 -6.108,-3.665 -9.592,-5.723 -0.16,1.242 -0.478,1.926 -0.262,2.304 3.564,6.246 6.701,12.816 10.92,18.592 7.971,10.913 11.192,23.446 13.898,36.271 C -0.976,-3.755 -0.598,-2.407 0,0"
             style="fill:#060500;fill-opacity:1;fill-rule:nonzero;stroke:none"
             id="path44" /></g><g
           id="g46"
           transform="translate(486.3793,402.7908)"><path
             d="m 0,0 c -1.581,-11.873 -4.291,-23.52 -12.088,-32.793 -6.939,-8.253 -16.502,-11.778 -27.329,-10.593 -1.871,0.205 -3.736,2.364 -5.06,4.049 -0.267,0.339 1.646,3.122 3.043,3.907 4.974,2.796 10.22,5.102 15.252,7.801 11.069,5.937 19.557,14.441 25.099,25.788 C -0.771,-1.203 -0.363,-0.613 0,0"
             style="fill:#060500;fill-opacity:1;fill-rule:nonzero;stroke:none"
             id="path48" /></g><g
           id="g50"
           transform="translate(400.6053,475.7233)"><path
             d="m 0,0 c 7.186,0.888 14.505,2.024 21.014,-2.616 8.633,-6.153 14.249,-14.758 18.609,-24.256 0.189,-0.411 0.148,-0.927 0.216,-1.409 -0.474,-0.179 -0.902,-0.512 -1.148,-0.409 -7.723,3.233 -16.6,3.771 -22.345,11.468 -3.651,4.89 -8.799,8.666 -13.293,12.923 -1.126,1.065 -2.321,2.056 -3.485,3.081 C -0.288,-0.812 -0.144,-0.406 0,0"
             style="fill:#050400;fill-opacity:1;fill-rule:nonzero;stroke:none"
             id="path52" /></g><g
           id="g54"
           transform="translate(464.3309,405.6367)"><path
             d="m 0,0 c -1.275,19.154 2.375,38.47 -7.959,55.982 0.321,0.18 0.642,0.359 0.963,0.539 0.816,-0.315 1.771,-0.454 2.425,-0.973 3.893,-3.094 7.701,-6.295 11.567,-9.422 3.096,-2.503 4.216,-5.979 3.996,-9.653 C 10.254,24.156 6.632,12.574 1.366,1.475 1.141,1 0.626,0.662 0,0"
             style="fill:#070600;fill-opacity:1;fill-rule:nonzero;stroke:none"
             id="path56" /></g><g
           id="g58"
           transform="translate(459.4538,430.8488)"><path
             d="m 0,0 c -5.975,5.719 -11.2,10.732 -14.522,17.961 -3.475,7.562 -8.998,14.184 -13.662,21.193 -0.616,0.926 -1.47,1.69 -2.154,2.575 -0.194,0.25 -0.174,0.665 -0.253,1.007 6.97,1.372 18.687,-4.528 22.692,-11.515 C -2.859,22.429 -0.736,12.749 0.384,2.8 0.46,2.129 0.206,1.42 0,0"
             style="fill:#060500;fill-opacity:1;fill-rule:nonzero;stroke:none"
             id="path60" /></g><g
           id="g62"
           transform="translate(444.1385,354.9048)"><path
             d="M 0,0 C 7.921,0.934 14.798,1.745 22.187,2.616 19.611,-2.35 16.774,-6.914 11.81,-9.767 11.3,-10.06 10.166,-10.021 9.778,-9.654 6.605,-6.648 3.541,-3.528 0,0"
             style="fill:#090800;fill-opacity:1;fill-rule:nonzero;stroke:none"
             id="path64" /></g><g
           id="g66"
           transform="translate(302.4953,170.7152)"><path
             d="m 0,0 c 18.191,12.679 36.36,24.743 53.843,37.732 12.485,9.276 16.809,22.615 13.931,37.811 -2.781,14.675 -12.054,23.902 -26.146,28.366 -2.684,0.85 -5.518,1.23 -8.022,1.771 -0.731,4.548 -0.989,8.945 -2.175,13.075 -6.956,24.221 -36.665,34.878 -57.843,20.75 -10.151,-6.772 -20.071,-13.889 -30.094,-20.853 -5.801,-4.03 -11.598,-8.065 -17.522,-12.184 C -49.261,70.847 -24.743,35.586 0,0 M 84.456,67.337 C 83.177,50.203 77.235,34.681 61.816,23.979 44.429,11.909 27.08,-0.216 9.681,-12.269 c -7.88,-5.458 -17.434,-3.851 -22.978,4.07 -17.348,24.787 -34.578,49.656 -51.855,74.493 -7.038,10.118 -14.101,20.22 -21.112,30.358 -5.322,7.695 -3.664,17.703 3.949,23.053 15.893,11.167 31.635,22.57 47.854,33.245 17.992,11.843 41.395,11.079 59.274,-0.557 11.555,-7.52 19.2,-17.871 22.134,-31.531 0.238,-1.108 1.288,-2.526 2.299,-2.912 19.358,-7.387 30.767,-21.244 34.277,-41.641 0.211,-1.226 0.513,-2.441 0.643,-3.675 0.155,-1.485 0.171,-2.984 0.29,-5.297"
             style="fill:#fbd302;fill-opacity:1;fill-rule:nonzero;stroke:none"
             id="path68" /></g><g
           id="g70"
           transform="translate(355.6918,371.6175)"><path
             d="m 0,0 c -48.557,7.012 -93.011,-1.976 -130.662,-34.801 -37.55,-32.736 -52.998,-75.287 -52.303,-125.04 -12.307,31.653 -8.008,88.152 32.632,129.99 C -106.544,15.228 -42.454,21.494 0,0"
             style="fill:#fcfbf8;fill-opacity:1;fill-rule:nonzero;stroke:none"
             id="path72" /></g><g
           id="g74"
           transform="translate(384.5005,519.6947)"><path
             d="m 0,0 c -0.119,-0.158 -0.238,-0.317 -0.358,-0.475 -0.044,0.105 -0.088,0.21 -0.132,0.316 0.163,0.053 0.326,0.107 0.489,0.161 C -0.002,0.002 0,0 0,0"
             style="fill:#fbd403;fill-opacity:1;fill-rule:nonzero;stroke:none"
             id="path76" /></g><g
           id="g78"
           transform="translate(272.5982,273.4783)"><path
             d="m 0,0 c 4.435,-6.362 8.541,-12.253 12.8,-18.363 4.864,3.417 9.67,6.51 14.151,10.019 4.77,3.735 5.432,10.148 1.964,15.019 -3.385,4.754 -9.85,6.171 -14.889,2.966 C 9.336,6.659 4.852,3.354 0,0 m 41.883,-60.2 c 6.576,4.578 12.883,8.777 18.973,13.269 4.883,3.602 5.926,9.617 2.931,14.611 -2.906,4.845 -9.404,7.202 -14.262,4.299 -6.988,-4.175 -13.547,-9.067 -20.455,-13.767 4.386,-6.303 8.483,-12.19 12.813,-18.412 m -11.986,-42.563 c -24.743,35.585 -49.261,70.847 -74.028,106.468 5.924,4.119 11.721,8.154 17.522,12.184 10.023,6.964 19.944,14.081 30.094,20.853 21.178,14.128 50.887,3.471 57.843,-20.75 1.186,-4.13 1.444,-8.527 2.175,-13.075 C 66.007,2.376 68.841,1.996 71.525,1.146 85.617,-3.318 94.89,-12.545 97.671,-27.221 100.55,-42.416 96.225,-55.755 83.74,-65.031 66.258,-78.02 48.088,-90.084 29.897,-102.763"
             style="fill:#010100;fill-opacity:1;fill-rule:nonzero;stroke:none"
             id="path80" /></g><g
           id="g82"
           transform="translate(314.4814,213.2779)"><path
             d="m 0,0 c -4.33,6.222 -8.427,12.109 -12.814,18.412 6.909,4.7 13.468,9.592 20.456,13.767 C 12.5,35.082 18.998,32.725 21.904,27.88 24.899,22.887 23.856,16.872 18.973,13.27 12.883,8.777 6.576,4.578 0,0"
             style="fill:#fad302;fill-opacity:1;fill-rule:nonzero;stroke:none"
             id="path84" /></g><g
           id="g86"
           transform="translate(272.5982,273.4783)"><path
             d="M 0,0 C 4.852,3.354 9.336,6.659 14.026,9.641 19.065,12.846 25.53,11.429 28.915,6.675 32.383,1.804 31.721,-4.609 26.951,-8.344 22.47,-11.853 17.664,-14.946 12.8,-18.363 8.541,-12.253 4.435,-6.362 0,0"
             style="fill:#fad302;fill-opacity:1;fill-rule:nonzero;stroke:none"
             id="path88" /></g></g></g></g></svg>
